<?xml version="1.0" standalone="no"?>
<!DOCTYPE svg PUBLIC "-//W3C//DTD SVG 20010904//EN"
 "http://www.w3.org/TR/2001/REC-SVG-20010904/DTD/svg10.dtd">
<svg xmlns="http://www.w3.org/2000/svg" version="1.0" width="120" height="120" viewBox="0 0 120 120" preserveAspectRatio="xMidYMid meet">
<metadata>
Created by potrace 1.15, written by Peter Selinger 2001-2017
</metadata>
<g transform="translate(0,12) scale(0.12,-0.12)" fill="#000000" stroke="none">
<path xmlns="http://www.w3.org/2000/svg" d="M715 80 c-22 -4 -86 -11 -143 -15 l-103 -7 3 -27 c3 -23 9 -27 46 -32 63 -8 64 -13 64 -169 1 -121 3 -116 -33 -81 -59 59 -178 67 -263 17 -155 -91 -193 -390 -71 -550 16 -20 49 -49 74 -64 38 -23 58 -27 118 -27 63 0 76 3 115 30 23 17 52 45 63 63 11 17 22 31 25 32 3 0 5 -24 5 -52 -2 -81 1 -88 38 -77 16 5 70 12 119 15 l88 7 0 28 c0 25 -4 29 -29 29 -56 0 -56 -5 -59 462 -2 235 -6 428 -10 427 -4 -1 -25 -5 -47 -9z m-198 -375 c42 -29 58 -98 58 -245 0 -191 -29 -260 -110 -260 -57 0 -89 50 -105 167 -17 130 3 271 47 324 29 33 74 39 110 14z"/>
</g>
</svg>
