<svg xmlns="http://www.w3.org/2000/svg" version="1.1" width="120" height="120">
  <defs/>
  <path fill="#ffc247" d="M16.56800079345703,101.08799743652344 L16.56800079345703,45.45600128173828 C16.56800079345703,44.33599853515625 16.940000534057617,43.4010009765625 17.687999725341797,42.56100082397461 L41.58399963378906,16.89299964904785 C42.42399978637695,15.958999633789062 43.16899871826172,15.678999900817871 44.382999420166016,15.678999900817871 L101.04100036621094,15.678999900817871 C102.53600311279297,15.678999900817871 103.37699890136719,16.518999099731445 103.37699890136719,18.011999130249023 L103.37699890136719,74.5790023803711 C103.37699890136719,75.6989974975586 103.00299835205078,76.63200378417969 102.25499725341797,77.47200012207031 L78.36000061035156,103.14099884033203 C77.52100372314453,104.07499694824219 76.77300262451172,104.3550033569336 75.55999755859375,104.3550033569336 L19.83300018310547,104.3550033569336 C18.059999465942383,104.3550033569336 16.56800079345703,102.86100006103516 16.56800079345703,101.08799743652344 Z M25.434999465942383,97.82099914550781 L70.23999786376953,97.82099914550781 C71.73500061035156,97.82099914550781 72.572998046875,96.98100280761719 72.572998046875,95.48799896240234 L72.572998046875,50.68299865722656 C72.572998046875,49.18899917602539 71.73500061035156,48.3489990234375 70.23999786376953,48.3489990234375 L25.434999465942383,48.3489990234375 C23.94300079345703,48.3489990234375 23.10099983215332,49.18899917602539 23.10099983215332,50.68299865722656 L23.10099983215332,95.48799896240234 C23.10099983215332,96.98100280761719 23.94300079345703,97.82099914550781 25.434999465942383,97.82099914550781 Z M31.22100067138672,41.816001892089844 L72.76000213623047,41.816001892089844 C73.9729995727539,41.816001892089844 74.72100067138672,41.44300079345703 75.55999755859375,40.60300064086914 L89.93499755859375,25.107999801635742 C91.33599853515625,23.614999771118164 90.7760009765625,22.21299934387207 88.72100067138672,22.21299934387207 L47.185001373291016,22.21299934387207 C45.97200012207031,22.21299934387207 45.2239990234375,22.586999893188477 44.382999420166016,23.427000045776367 L30.007999420166016,38.92100143432617 C28.608999252319336,40.415000915527344 29.16900062561035,41.816001892089844 31.22100067138672,41.816001892089844 Z M82,89.69999694824219 L95.72100067138672,74.85900115966797 C96.46900177001953,74.01899719238281 96.84100341796875,73.08499908447266 96.84100341796875,71.96499633789062 L96.84100341796875,31.452999114990234 C96.84100341796875,29.399999618530273 95.3489990234375,28.84000015258789 93.947998046875,30.334999084472656 L80.22699737548828,45.08300018310547 C79.48100280761719,45.92300033569336 79.10700225830078,46.85599899291992 79.10700225830078,47.97600173950195 L79.10700225830078,88.58000183105469 C79.10700225830078,90.63300323486328 80.60099792480469,91.19300079345703 82,89.69999694824219 Z M3.9670000076293945,57.683998107910156 C5.739999771118164,57.683998107910156 7.23199987411499,59.176998138427734 7.23199987411499,60.95100021362305 L7.23199987411499,111.35600280761719 C7.23199987411499,112.8489990234375 8.072999954223633,113.68900299072266 9.567999839782715,113.68900299072266 L59.97200012207031,113.68900299072266 C61.744998931884766,113.68900299072266 63.2400016784668,115.18299865722656 63.2400016784668,116.95600128173828 C63.2400016784668,118.31974029541016 62.35551834106445,119.51901245117188 61.14036560058594,120 L2.7979538440704346,120 C1.58207368850708,119.51901245117188 0.6970000267028809,118.31974029541016 0.6970000267028809,116.95600128173828 L0.6970000267028809,60.95100021362305 C0.6970000267028809,59.176998138427734 2.193000078201294,57.683998107910156 3.9670000076293945,57.683998107910156 Z M10.967000007629395,34.347999572753906 C9.192999839782715,34.347999572753906 7.699999809265137,32.85499954223633 7.699999809265137,31.08099937438965 C7.699999809265137,30.239999771118164 8.072999954223633,29.399999618530273 8.538999557495117,28.84000015258789 L34.58300018310547,1.0240000486373901 C35.05705261230469,0.4962092936038971 35.50230026245117,0.17738346755504608 36.0193977355957,0 L94.1856460571289,0 C95.44754028320312,0.4552796185016632 96.375,1.6791126728057861 96.375,3.0769999027252197 C96.375,4.85099983215332 94.88300323486328,6.343999862670898 93.10900115966797,6.343999862670898 L40.18299865722656,6.343999862670898 C38.96900177001953,6.343999862670898 38.2239990234375,6.625 37.382999420166016,7.559000015258789 L13.392999649047852,33.32099914550781 C12.739999771118164,33.974998474121094 11.901000022888184,34.347999572753906 10.967000007629395,34.347999572753906 Z"/>
</svg>
