<svg xmlns="http://www.w3.org/2000/svg" version="1.1" width="36" height="120">
  <defs/>
  <path fill="#ffc247" d="M20,5 L31.481,18.628 C33.443,20.961 33.721,22.828 32.323,23.948 C30.921,25.069 29.055,24.601 27,22.548 L25.88,21.428 C22.055,17.601 20.093,17.788 20.093,23.761 L20.093,61.099 C20.093,64.085 18.88,65.765 16.735,65.765 C14.585,65.765 13.372,64.085 13.372,61.099 L13.372,23.761 C13.372,17.788 11.415,17.601 8.333,20.681 L6.467,22.548 C4.412,24.601 2.544,25.069 1.145,23.948 C-0.255,22.921 0.117,21.055 2.079,18.628 L13.467,5 C15.521,2.573 17.948,2.573 20,5"/>
</svg>
