<svg xmlns="http://www.w3.org/2000/svg" version="1.1" width="36" height="120">
  <defs/>
  <path fill="#ffc247" d="M2,96 C3.399,94.88 5.265,95.347 7.32,97.4 L9.188,99.267 C12.268,102.348 14.227,102.16 14.227,96.187 L14.227,58.849 C14.227,55.861 15.44,54.183 17.588,54.183 C19.735,54.183 20.948,55.861 20.948,58.849 L20.948,96.187 C20.948,102.16 22.909,102.348 26.735,98.521 L27.855,97.4 C29.909,95.347 31.776,94.88 33.177,96 C34.576,97.12 34.297,98.987 32.336,101.32 L20.855,114.949 C18.803,117.376 16.375,117.376 14.32,114.949 L2.932,101.32 C0.972,98.893 0.599,97.028 2,96"/>
</svg>
