<svg xmlns="http://www.w3.org/2000/svg" version="1.1" width="120" height="120">
  <defs/>
  <path fill="#b5b500" d="M17.124000549316406,100.94100189208984 L17.124000549316406,45.308998107910156 C17.124000549316406,44.18899917602539 17.496000289916992,43.255001068115234 18.243999481201172,42.41600036621094 L42.138999938964844,16.746999740600586 C42.979000091552734,15.812000274658203 43.72700119018555,15.531999588012695 44.93899917602539,15.531999588012695 L101.5989990234375,15.531999588012695 C103.09200286865234,15.531999588012695 103.93199920654297,16.371999740600586 103.93199920654297,17.864999771118164 L103.93199920654297,74.43199920654297 C103.93199920654297,75.552001953125 103.55899810791016,76.48500061035156 102.81199645996094,77.32499694824219 L78.91699981689453,102.99500274658203 C78.0770034790039,103.9280014038086 77.3290023803711,104.20800018310547 76.11599731445312,104.20800018310547 L20.391000747680664,104.20800018310547 C18.617000579833984,104.20800018310547 17.124000549316406,102.71499633789062 17.124000549316406,100.94100189208984 Z M25.990999221801758,97.67500305175781 L70.7959976196289,97.67500305175781 C72.28900146484375,97.67500305175781 73.12899780273438,96.83499908447266 73.12899780273438,95.34100341796875 L73.12899780273438,50.5359992980957 C73.12899780273438,49.042999267578125 72.28900146484375,48.202999114990234 70.7959976196289,48.202999114990234 L25.990999221801758,48.202999114990234 C24.496999740600586,48.202999114990234 23.656999588012695,49.042999267578125 23.656999588012695,50.5359992980957 L23.656999588012695,95.34100341796875 C23.656999588012695,96.83499908447266 24.496999740600586,97.67500305175781 25.990999221801758,97.67500305175781 Z M31.77899932861328,41.66899871826172 L73.31600189208984,41.66899871826172 C74.52799987792969,41.66899871826172 75.2760009765625,41.29600143432617 76.11599731445312,40.45600128173828 L90.49099731445312,24.961000442504883 C91.89099884033203,23.468000411987305 91.33100128173828,22.066999435424805 89.2770004272461,22.066999435424805 L47.7400016784668,22.066999435424805 C46.527000427246094,22.066999435424805 45.779998779296875,22.440000534057617 44.93899917602539,23.280000686645508 L30.565000534057617,38.775001525878906 C29.163999557495117,40.268001556396484 29.724000930786133,41.66899871826172 31.77899932861328,41.66899871826172 Z M82.55699920654297,89.5530014038086 L96.27899932861328,74.71199798583984 C97.0250015258789,73.87200164794922 97.39900207519531,72.93900299072266 97.39900207519531,71.81900024414062 L97.39900207519531,31.30699920654297 C97.39900207519531,29.253000259399414 95.90499877929688,28.69499969482422 94.50499725341797,30.187999725341797 L80.78299713134766,44.93600082397461 C80.03600311279297,45.7760009765625 79.66300201416016,46.70899963378906 79.66300201416016,47.82899856567383 L79.66300201416016,88.43299865722656 C79.66300201416016,90.48699951171875 81.15599822998047,91.0469970703125 82.55699920654297,89.5530014038086 Z M4.5229997634887695,57.5369987487793 C6.296000003814697,57.5369987487793 7.789000034332275,59.03099822998047 7.789000034332275,60.80500030517578 L7.789000034332275,111.20899963378906 C7.789000034332275,112.7030029296875 8.628999710083008,113.54299926757812 10.123000144958496,113.54299926757812 L60.52799987792969,113.54299926757812 C62.30099868774414,113.54299926757812 63.79499816894531,115.03600311279297 63.79499816894531,116.80899810791016 C63.79499816894531,118.3469467163086 62.673404693603516,119.67318725585938 61.22053909301758,120 L3.830110788345337,120 C2.376594066619873,119.67318725585938 1.2549999952316284,118.3469467163086 1.2549999952316284,116.80899810791016 L1.2549999952316284,60.80500030517578 C1.2549999952316284,59.03099822998047 2.749000072479248,57.5369987487793 4.5229997634887695,57.5369987487793 Z M117,23 C118.32461547851562,23 119.4935073852539,23.833341598510742 120,24.994609832763672 L120,83.41902160644531 C119.81360626220703,83.90970611572266 119.52944946289062,84.36351013183594 119.14700317382812,84.79299926757812 L93.29199981689453,112.51599884033203 C92.63899993896484,113.16899871826172 91.79900360107422,113.54299926757812 90.86399841308594,113.54299926757812 C89.09100341796875,113.54299926757812 87.59700012207031,112.04900360107422 87.59700012207031,110.2760009765625 C87.59700012207031,109.43599700927734 87.97100067138672,108.59600067138672 88.43699645996094,108.03600311279297 L112.61299896240234,82.18000030517578 C113.36000061035156,81.33999633789062 113.73300170898438,80.40699768066406 113.73300170898438,79.28700256347656 L113.73300170898438,26.267000198364258 C113.73300170898438,24.493000030517578 115.22699737548828,23 117,23 Z M11.52299976348877,34.20100021362305 C9.74899959564209,34.20100021362305 8.255000114440918,32.70800018310547 8.255000114440918,30.934999465942383 C8.255000114440918,30.093000411987305 8.628999710083008,29.253000259399414 9.095000267028809,28.69499969482422 L35.138999938964844,0.8769999742507935 C35.5031623840332,0.4715560972690582 35.85032653808594,0.18942593038082123 36.22612380981445,0 L95.08430480957031,0 C96.16746520996094,0.5381824970245361 96.93099975585938,1.6627863645553589 96.93099975585938,2.930999994277954 C96.93099975585938,4.703999996185303 95.43699645996094,6.197000026702881 93.66400146484375,6.197000026702881 L40.7400016784668,6.197000026702881 C39.527000427246094,6.197000026702881 38.77899932861328,6.479000091552734 37.93899917602539,7.4120001792907715 L13.949000358581543,33.17499923706055 C13.295999526977539,33.827999114990234 12.456000328063965,34.20100021362305 11.52299976348877,34.20100021362305 Z"/>
</svg>
