<svg xmlns="http://www.w3.org/2000/svg" version="1.1" width="120" height="120">
  <defs/>
  <path fill="#6cd985" d="M82.5,89.5 L96.221,74.659 C96.968,73.819 97.341,72.885 97.341,71.765 L97.341,31.253 C97.341,29.2 95.848,28.64 94.448,30.135 L80.727,44.883 C79.979,45.723 79.605,46.656 79.605,47.776 L79.605,88.38 C79.605,90.433 81.099,90.993 82.5,89.5 M31.721,41.616 L73.259,41.616 C74.472,41.616 75.219,41.243 76.059,40.403 L90.433,24.908 C91.833,23.415 91.273,22.013 89.22,22.013 L47.683,22.013 C46.469,22.013 45.723,22.387 44.883,23.227 L30.508,38.721 C29.107,40.215 29.668,41.616 31.721,41.616 M25.933,97.621 L70.739,97.621 C72.232,97.621 73.072,96.781 73.072,95.288 L73.072,50.483 C73.072,48.989 72.232,48.149 70.739,48.149 L25.933,48.149 C24.44,48.149 23.6,48.989 23.6,50.483 L23.6,95.288 C23.6,96.781 24.44,97.621 25.933,97.621 M17.067,100.888 L17.067,45.256 C17.067,44.136 17.439,43.201 18.187,42.361 L42.083,16.693 C42.921,15.759 43.669,15.479 44.883,15.479 L101.541,15.479 C103.035,15.479 103.875,16.319 103.875,17.812 L103.875,74.379 C103.875,75.499 103.501,76.432 102.755,77.272 L78.86,102.941 C78.02,103.875 77.272,104.155 76.059,104.155 L20.333,104.155 C18.56,104.155 17.067,102.661 17.067,100.888"/>
</svg>
