<svg xmlns="http://www.w3.org/2000/svg" version="1.1" width="120" height="120">
  <defs/>
  <path fill="#ffffff" d="M75,40 L48.361,84.317 C48.601,84.799 48.921,85.279 49.081,85.839 C50.681,90.157 48.441,94.877 44.201,96.477 C39.881,97.997 35.083,95.837 33.563,91.519 C31.963,87.279 34.201,82.477 38.523,80.879 C39.803,80.399 41.083,80.319 42.361,80.477 L68.92,36.32 C68.6,35.76 68.361,35.2 68.12,34.64 C66.521,30.32 68.76,25.6 73,24.001 C77.32,22.48 82.12,24.64 83.639,28.961 C85.24,33.2 83,38 78.68,39.6 C77.48,40 76.2,40.16 75,40"/>
</svg>
