<svg xmlns="http://www.w3.org/2000/svg" version="1.1" width="120" height="120">
  <defs/>
  <path fill="#b598ee" d="M77,90 L90.723,75.159 C91.469,74.319 91.843,73.385 91.843,72.265 L91.843,31.753 C91.843,29.7 90.349,29.14 88.948,30.635 L75.227,45.383 C74.48,46.223 74.107,47.156 74.107,48.276 L74.107,88.88 C74.107,90.933 75.6,91.493 77,90 M26.221,42.116 L67.759,42.116 C68.972,42.116 69.72,41.743 70.56,40.903 L84.935,25.408 C86.335,23.915 85.775,22.513 83.721,22.513 L42.184,22.513 C40.971,22.513 40.224,22.887 39.383,23.727 L25.009,39.221 C23.608,40.715 24.168,42.116 26.221,42.116 M20.435,98.121 L65.24,98.121 C66.733,98.121 67.573,97.281 67.573,95.788 L67.573,50.983 C67.573,49.489 66.733,48.649 65.24,48.649 L20.435,48.649 C18.941,48.649 18.101,49.489 18.101,50.983 L18.101,95.788 C18.101,97.281 18.941,98.121 20.435,98.121 M11.568,101.388 L11.568,45.756 C11.568,44.636 11.94,43.701 12.688,42.861 L36.584,17.193 C37.423,16.259 38.169,15.979 39.383,15.979 L96.043,15.979 C97.536,15.979 98.376,16.819 98.376,18.312 L98.376,74.879 C98.376,75.999 98.003,76.932 97.256,77.772 L73.361,103.441 C72.521,104.375 71.773,104.655 70.56,104.655 L14.835,104.655 C13.061,104.655 11.568,103.161 11.568,101.388 M5.032,34.648 C3.259,34.648 1.765,33.155 1.765,31.381 C1.765,30.448 2.139,29.7 2.699,29.047 L30.516,1.324 C31.356,0.484 32.289,0.111 33.409,0.111 L89.041,0.111 C90.815,0.111 92.308,1.604 92.308,3.377 C92.308,5.151 90.815,6.644 89.041,6.644 L35.929,6.644 C34.903,6.644 33.971,7.019 33.223,7.765 L7.367,33.715 C6.713,34.275 5.967,34.648 5.032,34.648"/>
</svg>
