<svg xmlns="http://www.w3.org/2000/svg" version="1.1" width="120" height="120">
  <defs/>
  <path fill="#f27992" d="M27,82 L76.659,82 C78.619,82 79.925,81.067 80.58,79.199 L93.367,42.141 C94.207,39.623 93.087,38.035 90.567,38.035 L40.815,38.035 C38.855,38.035 37.64,39.063 36.895,40.836 L24.199,77.985 C23.36,80.507 24.48,82 27,82 M34.653,29.635 L102.421,29.635 C104.941,29.635 106.061,31.221 105.221,33.741 L86.74,87.6 C86.085,89.468 84.78,90.401 82.819,90.401 L15.052,90.401 C12.532,90.401 11.412,88.908 12.251,86.387 L30.735,32.435 C31.48,30.661 32.695,29.635 34.653,29.635"/>
</svg>
