<svg xmlns="http://www.w3.org/2000/svg" version="1.0" width="120" height="120" viewBox="0 0 785.000000 1280.000000" preserveAspectRatio="xMidYMid meet">
  <defs/>
  <path fill="#000000" d="M449.5,50.2 C389.1,103.7 300.9,136.8 183.5,150 C150.4,153.7 98.1,157 73.1,157 L63,157 L62.8,198.5 L62.5,240.1 L65.5,243 L68.5,245.9 L142,246.3 C204,246.6 217.3,247 227,248.4 C241.9,250.6 252.4,253.4 258.6,257 C266.8,261.6 270.9,271.2 274.7,294.2 C276.3,303.7 276.5,331.3 276.8,660.5 C277,919.8 276.8,1019.6 276,1028 C271.6,1072.6 258.3,1099.4 234.4,1111.8 C206.5,1126.2 168.1,1132 99.4,1132 L66.4,1132 L63.7,1134.8 L61,1137.6 L61,1176.5 L61,1215.4 L63.7,1218.2 L66.4,1221 L405,1221 L743.6,1221 L746.3,1218.2 L749,1215.4 L749,1176.4 L749,1137.4 L746.3,1134.8 L743.5,1132.2 L704.5,1131.7 C663,1131.2 648.8,1130 626.6,1125.5 C605.4,1121.2 589.9,1115.2 578.6,1106.8 C563,1095.3 552.6,1072.1 547.4,1037.5 C545.7,1026.1 545.6,1002.5 545.3,537 L545,48.6 L542.3,45.8 L539.6,43 L498.6,43.1 L457.5,43.1 L449.5,50.2 Z"/>
</svg>
