<svg xmlns="http://www.w3.org/2000/svg" version="1.0" width="120" height="120" viewBox="0 0 789.000000 1280.000000" preserveAspectRatio="xMidYMid meet">
  <defs/>
  <path fill="#000000" d="M685.5,27.6 C657.3,39.2 644.2,44.2 628.5,49.3 C590.8,61.7 553.2,69.4 511,73.5 C469.4,77.6 381.4,76.2 322.5,70.4 C267.6,65.1 211.2,52.1 157.1,32.3 C147.6,28.9 139.4,26 138.9,26 C138.4,26 136.5,27 134.6,28.2 L131.3,30.4 L130.6,55.4 C129.8,84.7 128.3,128.8 127.5,144.5 C120.9,277.8 109.8,390.5 90.9,514 C87.5,536.6 76.9,598.9 74.1,613.5 C72.6,621.1 72.4,623.8 73.3,624.6 C74.7,625.9 145.8,669 146.5,669 C146.9,669 153.9,664.1 162.3,658.2 C221.5,616 258.6,596.6 294.6,588.9 C308.7,585.9 333.7,585.2 348.8,587.4 C390.7,593.6 423.2,615.5 446.8,653.6 C470.9,692.5 484.6,745.4 488.9,816 C490,834.1 489.5,894.8 488,913.5 C482,992.2 466.4,1048.1 439,1089.2 C410.2,1132.6 369.7,1154 316.5,1154.2 C292.1,1154.2 273.7,1150.4 255.8,1141.4 C241.3,1134.2 231.6,1125.9 228,1117.7 C226.2,1113.6 226.1,1112.6 227.2,1111.3 C227.9,1110.4 240,1100.1 254,1088.5 C285,1062.7 289.7,1057.5 298.5,1038.7 C307.8,1018.9 311.6,998.7 310.7,973 C309.4,936 297.7,909.3 271.5,884.2 C251.7,865.1 230.6,854.1 202,847.8 C192.7,845.8 188.8,845.6 168.5,845.6 C145.9,845.6 145.3,845.7 133.5,848.8 C119.3,852.6 101,861.2 90.5,869.2 C65.9,887.8 47.1,916.2 38.5,947.6 C33.9,964.1 32.8,972.7 32.3,994.6 C31.5,1024.7 34.1,1043.9 42,1068 C68.3,1148.5 149.8,1207.6 260,1226.4 C308.1,1234.6 368.1,1236 419.9,1230 C517.5,1218.8 594.2,1185 653.4,1127.1 C682.4,1098.6 701.6,1072.8 719,1038.5 C739.6,998.2 752.2,954 758.6,900 C760.7,881.7 761.6,824.6 760.1,804 C754.4,729.3 732.8,665.8 695,613 C628.4,519.9 525.6,472 399.5,475.3 C357.7,476.4 323.4,482.6 283.1,496.5 C248.1,508.6 216.7,524.4 185.6,545.7 L174.8,553.1 L175.3,548.8 C175.7,546.4 181.6,483.1 188.6,408 C195.5,332.9 201.3,271.4 201.4,271.3 C201.5,271.2 205.2,272.5 209.6,274.2 C241.7,286.7 271.4,289.6 358.5,288.7 C432.1,287.9 468.3,285 510.5,276.4 C582.1,261.9 636,230.3 680.4,177 C684.3,172.3 690.9,164.8 695.2,160.3 C718.1,135.7 731.9,101.4 734.6,62.3 L735.3,52.2 L731.5,45.3 C726.5,36.4 718.8,28.3 712.5,25.4 C704.6,21.7 698.7,22.2 685.5,27.6 Z"/>
</svg>
