<svg xmlns="http://www.w3.org/2000/svg" version="1.0" width="120" height="120" viewBox="0 0 878.000000 1280.000000" preserveAspectRatio="xMidYMid meet">
  <defs/>
  <path fill="#000000" d="M485.4,48.3 C468.5,76.4 109.6,675.6 56.8,763.6 L43,786.7 L43,848.2 L43,909.6 L45.8,912.3 L48.6,915 L232.4,915 L416.3,915 L415.7,968.2 C415.2,1023.8 414.3,1037.6 410.1,1056.7 C404.3,1083.5 395.2,1098 379.2,1106.4 C358.6,1117.1 317.4,1125.7 273,1128.5 C267.8,1128.8 262,1129.3 260.3,1129.6 L257,1130.1 L257,1171.7 L257,1213.4 L259.7,1216.2 L262.4,1219 L537,1219 L811.6,1219 L814.3,1216.2 L817,1213.4 L817,1171.7 L817,1130.1 L813.8,1129.6 C812,1129.3 806.2,1128.8 801,1128.5 C776.7,1127.1 748.2,1122.1 731.1,1116.4 C709.8,1109.3 699.7,1101.6 692.5,1086.6 C681.3,1063.4 678,1034.9 678,959.2 L678,915 L744.7,915 L811.4,915 L814.2,912.3 L817,909.6 L817,857 L817,804.3 L814.7,802.2 L812.4,800 L745.4,799.8 L678.5,799.5 L678.2,419.1 L678,38.6 L675.3,35.8 L672.6,33 L583.6,33 L494.5,33 L485.4,48.3 Z M452.3,258.2 C451.3,264.7 434.9,486.8 429,575.5 C424.2,648.5 416,786.6 416,796.7 L416,800 L269.5,800 C188.9,800 123,799.7 123,799.4 C123,798.3 451.5,256 452.1,256 C452.4,256 452.6,257 452.3,258.2 Z"/>
</svg>
