<svg xmlns="http://www.w3.org/2000/svg" version="1.0" width="120" height="120" viewBox="0 0 810.000000 1280.000000" preserveAspectRatio="xMidYMid meet">
  <defs/>
  <path fill="#000000" d="M344.5,39.7 C284.2,44.6 240.2,55.3 197.4,75.5 C139.3,102.9 93.3,145.3 68.5,194.3 C53.9,223.2 46.6,253.1 45.3,288.5 C43.4,342.4 57.7,383.8 89,415 C108.4,434.4 130.2,446.1 158.3,452.2 C172.1,455.2 206.7,455.5 220.2,452.7 C246.5,447.4 268.8,435.7 286.8,417.9 C309.5,395.4 320.8,371.7 324.1,339.7 C328.4,297.1 311.6,256.8 281.1,236.6 C277.5,234.2 261.3,226.3 245.1,219 C228.9,211.8 214.5,205.1 213.1,204.2 C209,201.7 205,197.7 203.4,194.8 C198.9,186.1 206.5,171.2 221.8,159.1 C247.7,138.4 283.2,127 321.2,127 C406.2,127.1 457.9,173.7 472.9,263.7 C476.5,285.1 477.4,298 477.4,326 C477.3,376.3 470.6,417.2 454.5,465.5 C438.1,514.7 418.4,551.8 382.9,600 C354.5,638.5 325.9,673.1 277.4,727.6 C196,819 169.8,850.2 142.9,888.1 C71.4,988.6 38.6,1078.7 32.4,1191.3 L31.7,1204.1 L34.5,1207.1 L37.4,1210 L379.1,1210 L720.7,1210 L721.3,1206.7 C721.5,1205 732,1129.6 744.6,1039.3 L767.4,875 L764.5,872 L761.6,869 L722.8,869 L684,869 L683.6,871.2 C683.3,872.5 682.1,879.6 680.9,887 C676.7,913.4 669.4,937.4 661.3,952 C649.5,973.1 627.9,982 581.5,985 C572.9,985.6 490.8,986 388.1,986 L209.8,986 L210.5,983.2 C212.7,974.1 227.4,944.9 239.2,926 C264.2,886.1 305.8,841.6 354.1,802.9 C383.9,779 406.2,763.5 450.5,736 C533.1,684.8 568.1,661 608.6,628.6 C665.3,583.4 697,546.7 720.9,499 C745.4,449.9 756.3,398.3 754.7,338 C754.1,314.1 752.6,300.1 748.4,280.1 C731,195.7 676.3,126.9 592.5,83.9 C544.1,59 489.4,44.7 424.5,40 C411.9,39.1 354.5,38.8 344.5,39.7 Z"/>
</svg>
