<svg xmlns="http://www.w3.org/2000/svg" version="1.0" width="120" height="120" viewBox="0 0 817.000000 1280.000000" preserveAspectRatio="xMidYMid meet">
  <defs/>
  <path fill="#000000" d="M360,42.6 C337.9,44.1 323.8,45.3 313.5,46.6 C240.6,55.7 181.4,78.1 135.5,114.1 C123.6,123.4 103.8,143.3 95.9,154 C78.9,176.9 68.4,201.2 62.8,231 C60.9,240.6 60.6,246.2 60.5,265 C60.5,284.4 60.8,289 62.7,298.5 C66.7,318 73,334 82.3,348.4 C104,381.6 137.1,401.9 178.3,407 C190.8,408.6 218.6,407.7 229,405.5 C254.1,400 273.8,389.3 292.3,371.2 C312.2,351.7 323.4,328 326.2,299.8 C330.6,254.4 310.2,211.9 265,172.5 C252.7,161.8 250,158.4 250.8,154.5 C252.1,147.3 267.8,136.6 285,131 C306.3,124.1 338,123.3 364,129 C376.4,131.6 384.1,134.4 396.5,140.5 C436.6,160.3 467.3,203.2 482,259.9 C495.4,311.4 497.4,383.7 486.9,436.5 C478.5,478.8 462,513 438.6,536.6 C422.8,552.6 407.6,561.4 387.1,566.7 C374.1,570 360.8,570.6 335.7,568.9 C324,568.1 306.8,567.5 297.5,567.5 L280.5,567.5 L273.8,570.8 C266.1,574.6 256.7,583.5 252.7,590.8 C240.3,613.6 249.1,640.8 272.5,652 C285.2,658.1 300.9,659.3 331.5,656.5 C352.1,654.6 361.8,654.6 374.8,656.6 C401.6,660.6 422.4,671.1 441.6,690.4 C467.7,716.8 485.4,757.2 494.5,811.4 C498.1,833.1 499.8,850.9 501.2,880.7 C503.6,933.6 498.6,980.9 486.9,1017.6 C465.1,1085.7 422.5,1127.9 363.2,1139.9 C341,1144.5 312.7,1145.1 292,1141.5 C261.1,1136.1 230.2,1118.5 225.8,1103.7 L224.6,1099.8 L229.6,1095.1 C232.4,1092.6 240.1,1085.9 246.8,1080.2 C276.7,1054.9 295.2,1026 302.1,994 C305,980.3 305.3,955.1 302.7,941.7 C294.7,901.3 268.4,869.9 229,853.7 C209.8,845.8 191.2,842.6 164.5,842.6 C143,842.6 134,843.8 117.3,848.6 C82.8,858.5 50.1,886.1 33.4,919.3 C19.9,946.1 15.3,981.6 20.7,1017.5 C29.2,1074.8 62.8,1123.8 121.2,1164.3 C182.6,1206.9 259.8,1229.9 350.5,1232.9 C495.6,1237.6 611.9,1200 688.5,1123.5 C730.8,1081.3 754.7,1033.8 764.1,973 C766.1,960.5 766.4,954.5 766.4,929 C766.5,897.8 765.8,889.1 761.4,864 C739.4,740.8 649.3,660.8 487.5,620.9 C476.5,618.2 466.7,616 465.8,616 C461.6,616 464.6,614.3 472.8,612.1 C477.6,610.8 491.8,606.4 504.4,602.3 C621.8,564.1 692.5,509.9 724.5,433.5 C737,403.7 741.9,378.1 742.7,339.2 C743.4,302.3 741.2,280.8 733.4,251.1 C728.7,232.9 724.3,221.4 715,202.5 C698.8,169.7 676.6,142.1 647.4,118.6 C594.8,76.3 529.4,52.4 444.5,44.4 C429.5,43 372.1,41.8 360,42.6 Z"/>
</svg>
