<svg xmlns="http://www.w3.org/2000/svg" version="1.0" width="120" height="120" viewBox="0 0 120 120" preserveAspectRatio="xMidYMid meet">
  <defs/>
  <path fill="#000000" d="M85.8,2.4 C83.16,2.88 75.48,3.72 68.64,4.2 L56.28,5.04 L56.64,8.28 C57,11.04 57.72,11.52 62.16,12.12 C69.72,13.08 69.84,13.68 69.84,32.4 C69.96,46.92 70.2,46.32 65.88,42.12 C58.8,35.04 44.52,34.08 34.32,40.08 C15.72,51 11.16,86.88 25.8,106.08 C27.72,108.48 31.68,111.96 34.68,113.76 C39.24,116.52 41.64,117 48.84,117 C56.4,117 57.96,116.64 62.64,113.4 C65.4,111.36 68.88,108 70.2,105.84 C71.52,103.8 72.84,102.12 73.2,102 C73.56,102 73.8,104.88 73.8,108.24 C73.56,117.96 73.92,118.8 78.36,117.48 C80.28,116.88 86.76,116.04 92.64,115.68 L103.2,114.84 L103.2,111.48 C103.2,108.48 102.72,108 99.72,108 C93,108 93,108.6 92.64,52.56 C92.4,24.36 91.92,1.2 91.44,1.32 C90.96,1.44 88.44,1.92 85.8,2.4 Z M62.04,47.4 C67.08,50.88 69,59.16 69,76.8 C69,99.72 65.52,108 55.8,108 C48.96,108 45.12,102 43.2,87.96 C41.16,72.36 43.56,55.44 48.84,49.08 C52.32,45.12 57.72,44.4 62.04,47.4 Z"/>
</svg>
