<?xml version="1.0" encoding="UTF-8"?>
<svg xmlns="http://www.w3.org/2000/svg" version="1.1" width="120" height="120">
<path xmlns="http://www.w3.org/2000/svg" d="m 0,0 -19.979,-33.238 c 0.18,-0.361 0.42,-0.721 0.54,-1.141 1.2,-3.239 -0.48,-6.779 -3.66,-7.979 -3.24,-1.14 -6.839,0.48 -7.979,3.719 -1.2,3.18 0.479,6.781 3.72,7.98 0.96,0.36 1.92,0.42 2.879,0.301 L -4.56,2.76 C -4.8,3.18 -4.979,3.6 -5.16,4.02 -6.359,7.26 -4.68,10.8 -1.5,11.999 1.74,13.14 5.34,11.52 6.479,8.279 7.68,5.1 6,1.5 2.76,0.3 1.86,0 0.9,-0.12 0,0" style="fill:#ffffff;fill-opacity:1;fill-rule:nonzero;stroke:none" transform="matrix(1.3333333,0,0,-1.3333333,75,40)"/>
</svg>
