<?xml version="1.0" encoding="UTF-8"?>
<svg xmlns="http://www.w3.org/2000/svg" version="1.1" width="120" height="120">
<path d="m 0,0 c 1.33,0 2.45,-1.12 2.45,-2.45 v -41.725 c 0,-0.84 -0.279,-1.54 -0.84,-2.17 l -19.391,-20.792 c -0.49,-0.49 -1.12,-0.77 -1.821,-0.77 -1.33,0 -2.45,1.12 -2.45,2.45 0,0.63 0.28,1.26 0.63,1.68 l 18.132,19.392 c 0.56,0.63 0.84,1.33 0.84,2.17 V -2.45 C -2.45,-1.12 -1.33,0 0,0 m -25.832,-49.915 10.291,11.131 c 0.56,0.63 0.84,1.33 0.84,2.17 V -6.23 c 0,1.54 -1.12,1.959 -2.17,0.839 l -10.292,-11.061 c -0.56,-0.63 -0.84,-1.33 -0.84,-2.17 v -30.453 c 0,-1.54 1.12,-1.96 2.171,-0.84 m -38.084,35.913 h 31.153 c 0.909,0 1.47,0.28 2.1,0.91 l 10.781,11.621 c 1.05,1.12 0.63,2.171 -0.91,2.171 h -31.153 c -0.91,0 -1.47,-0.28 -2.101,-0.91 l -10.78,-11.621 c -1.051,-1.12 -0.631,-2.171 0.91,-2.171 m -4.341,-42.004 h 33.604 c 1.12,0 1.75,0.63 1.75,1.75 v 33.604 c 0,1.12 -0.63,1.75 -1.75,1.75 h -33.604 c -1.12,0 -1.75,-0.63 -1.75,-1.75 v -33.604 c 0,-1.12 0.63,-1.75 1.75,-1.75 m -6.65,-2.45 v 41.724 c 0,0.84 0.279,1.541 0.84,2.17 L -56.146,4.69 c 0.63,0.701 1.191,0.911 2.1,0.911 h 42.495 c 1.12,0 1.75,-0.63 1.75,-1.75 v -42.425 c 0,-0.84 -0.28,-1.54 -0.84,-2.17 l -17.921,-19.252 c -0.63,-0.7 -1.191,-0.91 -2.101,-0.91 h -41.794 c -1.33,0 -2.45,1.12 -2.45,2.45 m -4.201,50.055 c -1.33,0 -2.451,1.12 -2.451,2.45 0,0.631 0.281,1.261 0.63,1.68 l 19.533,20.863 c 0.629,0.7 1.19,0.91 2.1,0.91 h 41.794 c 1.33,0 2.45,-1.12 2.45,-2.45 0,-1.33 -1.12,-2.45 -2.45,-2.45 h -39.693 c -0.91,0 -1.471,-0.211 -2.101,-0.911 L -77.288,-7.631 c -0.49,-0.49 -1.12,-0.77 -1.82,-0.77 m -5.25,-17.502 c 1.33,0 2.45,-1.12 2.45,-2.451 v -37.803 c 0,-1.12 0.63,-1.75 1.75,-1.75 h 37.804 c 1.33,0 2.45,-1.12 2.45,-2.45 0,-1.331 -1.12,-2.451 -2.45,-2.451 h -42.004 c -1.33,0 -2.451,1.12 -2.451,2.451 v 42.003 c 0,1.331 1.121,2.451 2.451,2.451" style="fill:#b5b500;fill-opacity:1;fill-rule:nonzero;stroke:none" transform="matrix(1.3333333,0,0,-1.3333333,117,23)"/>
</svg>