<?xml version="1.0" encoding="UTF-8"?>
<svg xmlns="http://www.w3.org/2000/svg" version="1.1" width="36" height="120">
<path d="m 0,0 8.611,-10.221 c 1.471,-1.75 1.68,-3.15 0.631,-3.99 -1.051,-0.841 -2.451,-0.49 -3.992,1.05 l -0.84,0.84 c -2.869,2.87 -4.34,2.73 -4.34,-1.75 v -28.003 c 0,-2.24 -0.91,-3.5 -2.519,-3.5 -1.612,0 -2.522,1.26 -2.522,3.5 v 28.003 c 0,4.48 -1.468,4.62 -3.779,2.31 l -1.4,-1.4 c -1.541,-1.54 -2.942,-1.891 -3.991,-1.05 -1.05,0.77 -0.771,2.17 0.7,3.99 L -4.9,0 c 1.541,1.82 3.361,1.82 4.9,0" style="fill:#b598ee;fill-opacity:1;fill-rule:nonzero;stroke:none" transform="matrix(1.3333333,0,0,-1.3333333,20,5)"/>
</svg>