<?xml version="1.0" encoding="UTF-8"?>
<svg xmlns="http://www.w3.org/2000/svg" version="1.1" width="120" height="120">
<path d="m 0,0 h 37.244 c 1.47,0 2.45,0.7 2.941,2.101 l 9.59,27.793 c 0.63,1.889 -0.21,3.08 -2.1,3.08 H 10.361 c -1.47,0 -2.381,-0.771 -2.94,-2.101 L -2.101,3.011 C -2.73,1.12 -1.89,0 0,0 m 5.74,39.274 h 50.826 c 1.89,0 2.73,-1.19 2.1,-3.08 L 44.805,-4.2 c -0.491,-1.401 -1.47,-2.101 -2.941,-2.101 H -8.961 c -1.89,0 -2.73,1.12 -2.101,3.011 L 2.801,37.174 c 0.559,1.33 1.47,2.1 2.939,2.1" style="fill:#f27992;fill-opacity:1;fill-rule:nonzero;stroke:none" transform="matrix(1.3333333,0,0,-1.3333333,27,82)"/>
</svg>
