<?xml version="1.0" encoding="UTF-8"?>
<svg xmlns="http://www.w3.org/2000/svg" version="1.1" width="120" height="120">
<path d="m 0,0 10.291,11.131 c 0.561,0.63 0.84,1.33 0.84,2.17 v 30.384 c 0,1.54 -1.119,1.96 -2.17,0.839 L -1.33,33.463 c -0.559,-0.63 -0.84,-1.33 -0.84,-2.17 V 0.84 C -2.17,-0.7 -1.049,-1.12 0,0 M -38.084,35.913 H -6.93 c 0.91,0 1.471,0.28 2.1,0.91 L 5.951,48.444 c 1.051,1.12 0.631,2.171 -0.91,2.171 h -31.152 c -0.91,0 -1.471,-0.28 -2.102,-0.91 L -38.994,38.084 c -1.049,-1.12 -0.629,-2.171 0.91,-2.171 m -4.34,-42.004 H -8.82 c 1.121,0 1.75,0.63 1.75,1.75 v 33.604 c 0,1.12 -0.629,1.75 -1.75,1.75 h -33.604 c -1.119,0 -1.75,-0.63 -1.75,-1.75 V -4.341 c 0,-1.12 0.631,-1.75 1.75,-1.75 m -6.65,-2.45 v 41.724 c 0,0.84 0.279,1.541 0.84,2.171 l 17.922,19.251 c 0.63,0.701 1.189,0.911 2.099,0.911 h 42.494 c 1.121,0 1.752,-0.63 1.752,-1.75 V 11.341 c 0,-0.84 -0.281,-1.54 -0.842,-2.17 L -2.73,-10.081 c -0.629,-0.7 -1.19,-0.91 -2.1,-0.91 h -41.795 c -1.33,0 -2.449,1.12 -2.449,2.45 m -4.201,50.055 c -1.33,0 -2.45,1.12 -2.45,2.45 0,0.631 0.28,1.261 0.629,1.681 l 19.533,20.862 c 0.629,0.7 1.19,0.91 2.1,0.91 H 8.332 c 1.33,0 2.449,-1.12 2.449,-2.45 0,-1.33 -1.119,-2.45 -2.449,-2.45 h -39.695 c -0.91,0 -1.469,-0.211 -2.1,-0.911 L -51.455,42.284 c -0.49,-0.49 -1.119,-0.77 -1.82,-0.77 m -5.25,-17.502 c 1.33,0 2.449,-1.12 2.449,-2.45 v -37.804 c 0,-1.12 0.631,-1.75 1.752,-1.75 h 37.803 c 1.33,0 2.451,-1.12 2.451,-2.45 0,-1.33 -1.121,-2.451 -2.451,-2.451 h -42.004 c -1.33,0 -2.452,1.121 -2.452,2.451 v 42.004 c 0,1.33 1.122,2.45 2.452,2.45" style="fill:#ffc247;fill-opacity:1;fill-rule:nonzero;stroke:none" transform="matrix(1.3333333,0,0,-1.3333333,82,89.7)"/>
</svg>