<?xml version="1.0" encoding="UTF-8"?>
<svg xmlns="http://www.w3.org/2000/svg" version="1.1" width="120" height="120">
<path d="m 0,0 10.292,11.131 c 0.56,0.63 0.84,1.33 0.84,2.17 v 30.384 c 0,1.54 -1.12,1.96 -2.171,0.839 L -1.33,33.463 c -0.56,-0.63 -0.84,-1.33 -0.84,-2.17 V 0.84 C -2.17,-0.7 -1.05,-1.12 0,0 m -38.084,35.913 h 31.153 c 0.91,0 1.471,0.28 2.101,0.91 L 5.951,48.444 c 1.05,1.12 0.63,2.171 -0.91,2.171 h -31.153 c -0.91,0 -1.47,-0.28 -2.101,-0.91 l -10.78,-11.621 c -1.051,-1.12 -0.631,-2.171 0.909,-2.171 m -4.34,-42.004 H -8.82 c 1.12,0 1.75,0.63 1.75,1.75 v 33.604 c 0,1.12 -0.63,1.75 -1.75,1.75 h -33.604 c -1.12,0 -1.75,-0.63 -1.75,-1.75 V -4.341 c 0,-1.12 0.63,-1.75 1.75,-1.75 m -6.65,-2.45 v 41.724 c 0,0.84 0.279,1.541 0.84,2.171 l 17.922,19.251 c 0.629,0.701 1.189,0.911 2.099,0.911 h 42.495 c 1.12,0 1.75,-0.63 1.75,-1.75 V 11.341 c 0,-0.84 -0.28,-1.54 -0.84,-2.17 L -2.729,-10.081 c -0.63,-0.7 -1.191,-0.91 -2.101,-0.91 h -41.794 c -1.33,0 -2.45,1.12 -2.45,2.45 m -4.902,50.055 c -1.33,0 -2.45,1.12 -2.45,2.45 0,0.7 0.28,1.261 0.7,1.751 l 20.863,20.792 c 0.63,0.63 1.33,0.91 2.17,0.91 H 9.031 c 1.33,0 2.45,-1.12 2.45,-2.45 0,-1.33 -1.12,-2.45 -2.45,-2.45 h -39.834 c -0.77,0 -1.469,-0.281 -2.03,-0.841 L -52.225,42.214 c -0.49,-0.42 -1.05,-0.7 -1.751,-0.7" style="fill:#b598ee;fill-opacity:1;fill-rule:nonzero;stroke:none" transform="matrix(1.3333333,0,0,-1.3333333,77,90)"/>
</svg>