<?xml version="1.0" encoding="UTF-8"?>
<svg xmlns="http://www.w3.org/2000/svg" version="1.1" width="36" height="120">
<path d="m 0,0 c 1.049,0.84 2.449,0.49 3.99,-1.05 l 1.401,-1.4 c 2.31,-2.311 3.779,-2.17 3.779,2.31 v 28.003 c 0,2.241 0.91,3.5 2.521,3.5 1.61,0 2.52,-1.259 2.52,-3.5 V -0.14 c 0,-4.48 1.471,-4.621 4.34,-1.751 l 0.84,0.841 c 1.541,1.54 2.941,1.89 3.992,1.05 1.049,-0.84 0.84,-2.24 -0.631,-3.99 l -8.611,-10.222 c -1.539,-1.82 -3.36,-1.82 -4.901,0 L 0.699,-3.99 C -0.771,-2.17 -1.051,-0.771 0,0" style="fill:#f27992;fill-opacity:1;fill-rule:nonzero;stroke:none" transform="matrix(1.3333333,0,0,-1.3333333,2,96)"/>
</svg>