<?xml version="1.0" encoding="UTF-8"?>
<svg xmlns="http://www.w3.org/2000/svg" version="1.1" width="120" height="120">
<path d="m 0,0 10.291,11.131 c 0.56,0.63 0.84,1.33 0.84,2.17 v 30.384 c 0,1.54 -1.12,1.96 -2.17,0.839 L -1.33,33.463 c -0.561,-0.63 -0.841,-1.33 -0.841,-2.17 V 0.84 C -2.171,-0.7 -1.051,-1.12 0,0 m -38.084,35.913 h 31.153 c 0.91,0 1.47,0.28 2.1,0.91 L 5.95,48.444 c 1.05,1.12 0.63,2.171 -0.91,2.171 h -31.153 c -0.91,0 -1.47,-0.28 -2.1,-0.91 L -38.994,38.084 c -1.051,-1.12 -0.63,-2.171 0.91,-2.171 m -4.341,-42.004 h 33.604 c 1.12,0 1.75,0.63 1.75,1.75 v 33.604 c 0,1.12 -0.63,1.75 -1.75,1.75 h -33.604 c -1.12,0 -1.75,-0.63 -1.75,-1.75 V -4.341 c 0,-1.12 0.63,-1.75 1.75,-1.75 m -6.65,-2.45 v 41.724 c 0,0.84 0.279,1.541 0.84,2.171 l 17.922,19.251 c 0.629,0.701 1.19,0.911 2.1,0.911 h 42.494 c 1.12,0 1.75,-0.63 1.75,-1.75 V 11.341 c 0,-0.84 -0.28,-1.54 -0.84,-2.17 L -2.73,-10.081 c -0.63,-0.7 -1.191,-0.91 -2.101,-0.91 h -41.794 c -1.33,0 -2.45,1.12 -2.45,2.45" style="fill:#6cd985;fill-opacity:1;fill-rule:nonzero;stroke:none" transform="matrix(1.3333333,0,0,-1.3333333,82.5,89.5)"/>
</svg>